<svg width="64" height="64" fill="none" xmlns="http://www.w3.org/2000/svg"><g filter="url(#filter0_d)"><path d="M46.25 33.14v-3.704a2.567 2.567 0 00-2.563-2.564H42.47l1.464-4.883a.855.855 0 00-.61-1.075l-3.912-.977V18.04a.855.855 0 00-.855-.855H23.744a.855.855 0 00-.855.855v8.832h-1.14a2.567 2.567 0 00-2.564 2.564V44.25a2.567 2.567 0 002.564 2.564h21.938a2.567 2.567 0 002.564-2.564v-3.704a2.567 2.567 0 002.564-2.564v-2.28a2.567 2.567 0 00-2.564-2.564zm-4.21-10.785l-1.268 4.232h-1.359v-4.888l2.628.656zm-17.442-3.46h13.106v7.977H24.598v-7.977zM44.541 44.25a.856.856 0 01-.854.854H21.749a.856.856 0 01-.854-.854V29.436c0-.471.383-.855.854-.855h21.938c.47 0 .854.384.854.855v3.703h-3.134a2.567 2.567 0 00-2.564 2.565v2.279a2.567 2.567 0 002.564 2.564h3.134v3.704zm2.564-6.268a.856.856 0 01-.854.855h-4.844a.856.856 0 01-.854-.855v-2.28c0-.47.383-.854.854-.854h4.844c.471 0 .854.383.854.855v2.279z" fill="url(#paint0_linear)"/><path fill-rule="evenodd" clip-rule="evenodd" d="M22.704 18.04c0-.574.465-1.04 1.04-1.04h14.814c.575 0 1.04.466 1.04 1.04v1.752l3.771.943a1.04 1.04 0 01.744 1.307l-1.394 4.644h.968a2.752 2.752 0 012.749 2.75v3.525A2.753 2.753 0 0149 35.704v2.279a2.753 2.753 0 01-2.564 2.743v3.525A2.752 2.752 0 0143.686 47H21.75A2.752 2.752 0 0119 44.25V29.437a2.752 2.752 0 012.75-2.75h.954V18.04zm23.547 15.1h-.185v-3.704a2.382 2.382 0 00-2.38-2.38h-1.464l1.536-5.12a.67.67 0 00-.479-.842l-4.051-1.013V18.04c0-.37-.3-.67-.67-.67H23.744c-.37 0-.67.3-.67.67v9.017H21.75a2.382 2.382 0 00-2.379 2.379V44.25a2.382 2.382 0 002.38 2.379h21.937a2.382 2.382 0 002.379-2.38v-3.888h.185a2.382 2.382 0 002.379-2.38v-2.278a2.382 2.382 0 00-2.38-2.38v-.184zM24.413 18.71H37.89v8.347H24.413v-8.348zm.37.37v7.607H37.52V19.08H24.784zm14.445 2.381l3.046.762-1.365 4.549h-1.681v-5.31zm.37.475v4.466h1.036l1.174-3.914-2.21-.552zm-17.849 6.83a.67.67 0 00-.67.67V44.25c0 .369.301.67.67.67h21.938c.369 0 .669-.301.669-.67v-3.519h-2.949a2.752 2.752 0 01-2.749-2.75v-2.278a2.752 2.752 0 012.75-2.75h2.948v-3.518a.67.67 0 00-.67-.67H21.75zm-1.04.67c0-.574.467-1.04 1.04-1.04h21.938c.573 0 1.04.466 1.04 1.04v3.889h-3.32a2.382 2.382 0 00-2.379 2.379v2.279a2.382 2.382 0 002.38 2.379h3.318v3.889a1.04 1.04 0 01-1.04 1.04H21.75a1.04 1.04 0 01-1.04-1.04V29.436zm20.698 5.598a.67.67 0 00-.67.67v2.279c0 .369.301.67.67.67h4.844c.369 0 .67-.301.67-.67v-2.28a.67.67 0 00-.67-.669h-4.844zm-1.04.67c0-.574.467-1.04 1.04-1.04h4.844c.573 0 1.04.466 1.04 1.04v2.279a1.04 1.04 0 01-1.04 1.04h-4.844a1.04 1.04 0 01-1.04-1.04v-2.28z" fill="url(#paint1_linear)"/><path d="M44.256 35.989h-.285a.855.855 0 000 1.709h.285a.855.855 0 000-1.71z" fill="url(#paint2_linear)"/><path fill-rule="evenodd" clip-rule="evenodd" d="M42.932 36.843c0-.574.465-1.04 1.04-1.04h.284a1.04 1.04 0 010 2.08h-.285a1.04 1.04 0 01-1.04-1.04zm1.04-.67a.67.67 0 000 1.34h.284a.67.67 0 000-1.34h-.285z" fill="url(#paint3_linear)"/></g><defs><linearGradient id="paint0_linear" x1="34" y1="17" x2="34" y2="47" gradientUnits="userSpaceOnUse"><stop stop-color="#FF9FC8"/><stop offset="1" stop-color="#FF579E"/></linearGradient><linearGradient id="paint1_linear" x1="34" y1="17" x2="34" y2="47" gradientUnits="userSpaceOnUse"><stop stop-color="#FF9FC8"/><stop offset="1" stop-color="#FF579E"/></linearGradient><linearGradient id="paint2_linear" x1="34" y1="17" x2="34" y2="47" gradientUnits="userSpaceOnUse"><stop stop-color="#FF9FC8"/><stop offset="1" stop-color="#FF579E"/></linearGradient><linearGradient id="paint3_linear" x1="34" y1="17" x2="34" y2="47" gradientUnits="userSpaceOnUse"><stop stop-color="#FF9FC8"/><stop offset="1" stop-color="#FF579E"/></linearGradient><filter id="filter0_d" x="4" y="2" width="60" height="60" filterUnits="userSpaceOnUse" color-interpolation-filters="sRGB"><feFlood flood-opacity="0" result="BackgroundImageFix"/><feColorMatrix in="SourceAlpha" values="0 0 0 0 0 0 0 0 0 0 0 0 0 0 0 0 0 0 127 0"/><feOffset/><feGaussianBlur stdDeviation="7.5"/><feColorMatrix values="0 0 0 0 1 0 0 0 0 0.341176 0 0 0 0 0.619608 0 0 0 1 0"/><feBlend in2="BackgroundImageFix" result="effect1_dropShadow"/><feBlend in="SourceGraphic" in2="effect1_dropShadow" result="shape"/></filter></defs></svg>