<svg width="64" height="64" fill="none" xmlns="http://www.w3.org/2000/svg"><g filter="url(#filter0_d)" clip-path="url(#clip0)"><path d="M21.223 24.932c-.022 0-.044-.004-.067-.004h-6.164A1.994 1.994 0 0013 26.92v8.608c0 1.098.893 1.991 1.992 1.991h6.164c.023 0 .045-.003.067-.003a1.993 1.993 0 001.989 1.931h19.564c4.535 0 8.224-3.689 8.224-8.223C51 26.689 47.31 23 42.776 23H23.212a1.992 1.992 0 00-1.989 1.932zm-6.231 10.66a.068.068 0 01-.065-.064V26.92c0-.033.032-.064.065-.064h6.164c.033 0 .064.031.064.064v8.608a.068.068 0 01-.064.064h-6.164zm8.22 1.928a.068.068 0 01-.064-.064V24.99c0-.033.03-.064.064-.064H41.04c.033 0 .064.031.064.064v12.465a.068.068 0 01-.064.064H23.21zm25.86-6.296a6.303 6.303 0 01-6.043 6.29c0-.02.003-.039.003-.058V24.99l-.003-.057a6.303 6.303 0 016.044 6.29z" fill="url(#paint0_linear)"/><path d="M19.679 32.937a.964.964 0 00-.964-.964H17.56a.964.964 0 100 1.927h1.156a.964.964 0 00.964-.963z" fill="url(#paint1_linear)"/><path d="M19.679 29.511a.964.964 0 00-.964-.963H17.56a.964.964 0 100 1.927h1.156a.964.964 0 00.964-.964z" fill="url(#paint2_linear)"/></g><defs><linearGradient id="paint0_linear" x1="32" y1="19.5" x2="32" y2="44" gradientUnits="userSpaceOnUse"><stop stop-color="#FF9FC8"/><stop offset="1" stop-color="#FF579E"/></linearGradient><linearGradient id="paint1_linear" x1="32" y1="19.5" x2="32" y2="44" gradientUnits="userSpaceOnUse"><stop stop-color="#FF9FC8"/><stop offset="1" stop-color="#FF579E"/></linearGradient><linearGradient id="paint2_linear" x1="32" y1="19.5" x2="32" y2="44" gradientUnits="userSpaceOnUse"><stop stop-color="#FF9FC8"/><stop offset="1" stop-color="#FF579E"/></linearGradient><clipPath id="clip0"><path fill="#fff" d="M0 0h64v64H0z"/></clipPath><filter id="filter0_d" x="-2" y="8" width="68" height="46.447" filterUnits="userSpaceOnUse" color-interpolation-filters="sRGB"><feFlood flood-opacity="0" result="BackgroundImageFix"/><feColorMatrix in="SourceAlpha" values="0 0 0 0 0 0 0 0 0 0 0 0 0 0 0 0 0 0 127 0"/><feOffset/><feGaussianBlur stdDeviation="7.5"/><feColorMatrix values="0 0 0 0 1 0 0 0 0 0.341176 0 0 0 0 0.619608 0 0 0 1 0"/><feBlend in2="BackgroundImageFix" result="effect1_dropShadow"/><feBlend in="SourceGraphic" in2="effect1_dropShadow" result="shape"/></filter></defs></svg>