<svg width="64" height="64" fill="none" xmlns="http://www.w3.org/2000/svg"><g filter="url(#filter0_d)" clip-path="url(#clip0)"><path d="M47.975 30.18h-2.746a3.74 3.74 0 00-.247.009 8.697 8.697 0 00-2.03-1.355 6.514 6.514 0 002.753-5.317A6.524 6.524 0 0039.188 17a6.524 6.524 0 00-6.517 6.517c0 1.727.676 3.299 1.776 4.466h-4.795a6.493 6.493 0 001.775-4.466A6.524 6.524 0 0024.91 17a6.524 6.524 0 00-6.517 6.517c0 2.015.92 3.82 2.361 5.016a8.655 8.655 0 00-2.736 1.656 3.733 3.733 0 00-.247-.01h-2.746c-.566 0-1.025.46-1.025 1.026v5.492c0 .566.459 1.025 1.025 1.025h.073v7.761c0 .566.46 1.026 1.026 1.026h30.752c.567 0 1.026-.46 1.026-1.026v-7.761h.073c.566 0 1.025-.46 1.025-1.025v-5.492c0-.566-.459-1.025-1.025-1.025zm-1.026 5.491h-1.72c-.949 0-1.72-.771-1.72-1.72s.771-1.72 1.72-1.72h1.72v3.44zM34.722 23.517a4.471 4.471 0 014.466-4.466 4.471 4.471 0 014.466 4.466 4.471 4.471 0 01-4.466 4.466 4.471 4.471 0 01-4.466-4.466zM24.91 19.05a4.471 4.471 0 014.466 4.466 4.471 4.471 0 01-4.466 4.466 4.471 4.471 0 01-4.466-4.466 4.471 4.471 0 014.466-4.466zm-8.86 13.18h1.721c.949 0 1.72.771 1.72 1.72s-.771 1.72-1.72 1.72h-1.72v-3.44zm1.1 5.491h.621a3.776 3.776 0 003.771-3.771c0-1.152-.52-2.184-1.335-2.876h.024a6.619 6.619 0 013.581-1.041h9.768a8.697 8.697 0 00-3.105 6.663v7.76h-8.933v-4.466a1.025 1.025 0 00-2.05 0v4.467h-2.343v-6.736zm28.7 6.736h-2.342V39.99a1.025 1.025 0 00-2.05 0v4.467h-8.933v-7.761a6.67 6.67 0 016.663-6.663c1.295 0 2.532.366 3.595 1.05a3.763 3.763 0 00-1.325 2.867 3.775 3.775 0 003.771 3.771h.622v6.736z" fill="url(#paint0_linear)"/></g><defs><linearGradient id="paint0_linear" x1="31.5" y1="17" x2="31.5" y2="46.509" gradientUnits="userSpaceOnUse"><stop stop-color="#FF9FC8"/><stop offset="1" stop-color="#FF579E"/></linearGradient><clipPath id="clip0"><path fill="#fff" d="M0 0h64v64H0z"/></clipPath><filter id="filter0_d" x="-1" y="2" width="65" height="59.509" filterUnits="userSpaceOnUse" color-interpolation-filters="sRGB"><feFlood flood-opacity="0" result="BackgroundImageFix"/><feColorMatrix in="SourceAlpha" values="0 0 0 0 0 0 0 0 0 0 0 0 0 0 0 0 0 0 127 0"/><feOffset/><feGaussianBlur stdDeviation="7.5"/><feColorMatrix values="0 0 0 0 1 0 0 0 0 0.341176 0 0 0 0 0.619608 0 0 0 1 0"/><feBlend in2="BackgroundImageFix" result="effect1_dropShadow"/><feBlend in="SourceGraphic" in2="effect1_dropShadow" result="shape"/></filter></defs></svg>