<svg width="63" height="67" fill="none" xmlns="http://www.w3.org/2000/svg"><g filter="url(#filter0_d)" fill-rule="evenodd" clip-rule="evenodd"><path d="M32.326 15.387l15.67 9.155V42.79l-15.98 8.632-.512.277-.46-.29-15.048-8.636V24.542l.508-.216 15.822-8.939zM17.996 26.88v11.04l6.151-4.6 1.437 2.686 4.58-2.497-12.168-6.629zm12.546 8.7l-5.77 3.148-1.29-2.413-5.486 4.103v1.197l12.546 7.2V35.581zm2 13.285l13.454-7.268V26.915l-8.909 5.065v5.387h-2v-4.25l-2.546 1.447v14.301zm3.54-18.615L45 25.18l-12.695-7.483-13.248 7.484 13.196 7.188 1.815-.99-3.492-2.078 1.022-1.718 4.484 2.667z" fill="#fff"/><path d="M32.326 15.387l15.67 9.155V42.79l-15.98 8.632-.512.277-.46-.29-15.048-8.636V24.542l.508-.216 15.822-8.939zM17.996 26.88v11.04l6.151-4.6 1.437 2.686 4.58-2.497-12.168-6.629zm12.546 8.7l-5.77 3.148-1.29-2.413-5.486 4.103v1.197l12.546 7.2V35.581zm2 13.285l13.454-7.268V26.915l-8.909 5.065v5.387h-2v-4.25l-2.546 1.447v14.301zm3.54-18.615L45 25.18l-12.695-7.483-13.248 7.484 13.196 7.188 1.815-.99-3.492-2.078 1.022-1.718 4.484 2.667z" fill="url(#paint0_linear)"/></g><defs><linearGradient id="paint0_linear" x1="31.996" y1="15.387" x2="31.996" y2="51.699" gradientUnits="userSpaceOnUse"><stop stop-color="#FF9FC8"/><stop offset="1" stop-color="#FF579E"/></linearGradient><filter id="filter0_d" x=".996" y=".387" width="62" height="66.312" filterUnits="userSpaceOnUse" color-interpolation-filters="sRGB"><feFlood flood-opacity="0" result="BackgroundImageFix"/><feColorMatrix in="SourceAlpha" values="0 0 0 0 0 0 0 0 0 0 0 0 0 0 0 0 0 0 127 0"/><feOffset/><feGaussianBlur stdDeviation="7.5"/><feColorMatrix values="0 0 0 0 1 0 0 0 0 0.341176 0 0 0 0 0.619608 0 0 0 1 0"/><feBlend in2="BackgroundImageFix" result="effect1_dropShadow"/><feBlend in="SourceGraphic" in2="effect1_dropShadow" result="shape"/></filter></defs></svg>