<svg width="64" height="64" fill="none" xmlns="http://www.w3.org/2000/svg"><g filter="url(#filter0_d)"><path d="M47.583 23.25a4.84 4.84 0 000-6.836 4.84 4.84 0 00-6.836 0L19.418 37.746 16 48l10.254-3.418 21.33-21.332zm-7.519 4.785L25.732 42.37l-4.102-4.102 14.332-14.334 4.102 4.101zm-2.735-5.468l1.368-1.368 4.101 4.102-1.367 1.367-4.102-4.101zm4.785-4.786a2.904 2.904 0 014.102 0 2.904 2.904 0 010 4.102l-2.05 2.05-4.102-4.101 2.05-2.051zM20.686 40.058l3.256 3.257-4.885 1.628 1.629-4.885z" fill="url(#paint0_linear)"/><path fill-rule="evenodd" clip-rule="evenodd" d="M44.548 25.106a1 1 0 011.342.447c.217.434.456 1.129.527 1.907.07.778-.02 1.74-.59 2.595-.456.685-1.606 1.96-2.778 3.205a169.833 169.833 0 01-3.346 3.447 1 1 0 01-1.414-1.414c.828-.828 2.12-2.146 3.303-3.403 1.212-1.288 2.228-2.43 2.572-2.945.23-.345.307-.799.26-1.304a3.6 3.6 0 00-.323-1.194 1 1 0 01.447-1.341z" fill="url(#paint1_linear)"/></g><defs><linearGradient id="paint0_linear" x1="32.498" y1="15" x2="32.498" y2="48" gradientUnits="userSpaceOnUse"><stop stop-color="#FF9FC8"/><stop offset="1" stop-color="#FF579E"/></linearGradient><linearGradient id="paint1_linear" x1="32.498" y1="15" x2="32.498" y2="48" gradientUnits="userSpaceOnUse"><stop stop-color="#FF9FC8"/><stop offset="1" stop-color="#FF579E"/></linearGradient><filter id="filter0_d" x="1" y="0" width="62.997" height="63" filterUnits="userSpaceOnUse" color-interpolation-filters="sRGB"><feFlood flood-opacity="0" result="BackgroundImageFix"/><feColorMatrix in="SourceAlpha" values="0 0 0 0 0 0 0 0 0 0 0 0 0 0 0 0 0 0 127 0"/><feOffset/><feGaussianBlur stdDeviation="7.5"/><feColorMatrix values="0 0 0 0 1 0 0 0 0 0.341176 0 0 0 0 0.619608 0 0 0 1 0"/><feBlend in2="BackgroundImageFix" result="effect1_dropShadow"/><feBlend in="SourceGraphic" in2="effect1_dropShadow" result="shape"/></filter></defs></svg>