<svg width="64" height="64" fill="none" xmlns="http://www.w3.org/2000/svg"><g filter="url(#filter0_d)"><path d="M32.001 16c-5.346 0-9.695 4.342-9.695 9.68 0 7.951 8.73 17.446 9.102 17.772a.896.896 0 001.186 0c.372-.326 9.103-9.82 9.103-17.773C41.697 20.342 37.347 16 32 16zm0 25.552c-1.93-1.867-7.9-9.857-7.9-15.873 0-4.349 3.544-7.887 7.9-7.887s7.9 3.538 7.9 7.887c0 6.016-5.97 14.006-7.9 15.873z" fill="url(#paint0_linear)"/><path d="M32 21.17c-2.475 0-4.489 2.023-4.489 4.51 0 2.486 2.014 4.508 4.489 4.508s4.489-2.022 4.489-4.509c0-2.486-2.014-4.509-4.49-4.509zm0 7.226c-1.485 0-2.693-1.219-2.693-2.717s1.208-2.717 2.693-2.717 2.693 1.219 2.693 2.717-1.208 2.718-2.693 2.718z" fill="url(#paint1_linear)"/><path d="M43.267 43.243c0 .003 0 .01-.005.025a.424.424 0 01-.04.091 1.71 1.71 0 01-.379.429c-.442.382-1.182.805-2.247 1.195-2.116.774-5.155 1.287-8.596 1.287-3.44 0-6.48-.513-8.596-1.287-1.065-.39-1.805-.813-2.247-1.195a1.712 1.712 0 01-.38-.429.424.424 0 01-.04-.091.09.09 0 01-.004-.025c0-.003 0-.01.005-.024a.424.424 0 01.04-.092 1.71 1.71 0 01.379-.428c.442-.383 1.182-.806 2.247-1.195a17.258 17.258 0 011.96-.578l-.73-1.603C21.23 40.181 19 41.617 19 43.243 19 45.87 24.82 48 32 48s13-2.13 13-4.757c0-1.626-2.23-3.062-5.633-3.92l-.627 1.628c.676.163 1.298.349 1.856.553 1.065.39 1.805.812 2.247 1.195.216.186.326.334.38.428a.424.424 0 01.04.092.09.09 0 01.004.024z" fill="url(#paint2_linear)"/></g><defs><linearGradient id="paint0_linear" x1="32" y1="16" x2="32" y2="48" gradientUnits="userSpaceOnUse"><stop stop-color="#FF9FC8"/><stop offset="1" stop-color="#FF579E"/></linearGradient><linearGradient id="paint1_linear" x1="32" y1="16" x2="32" y2="48" gradientUnits="userSpaceOnUse"><stop stop-color="#FF9FC8"/><stop offset="1" stop-color="#FF579E"/></linearGradient><linearGradient id="paint2_linear" x1="32" y1="16" x2="32" y2="48" gradientUnits="userSpaceOnUse"><stop stop-color="#FF9FC8"/><stop offset="1" stop-color="#FF579E"/></linearGradient><filter id="filter0_d" x="4" y="1" width="56" height="62" filterUnits="userSpaceOnUse" color-interpolation-filters="sRGB"><feFlood flood-opacity="0" result="BackgroundImageFix"/><feColorMatrix in="SourceAlpha" values="0 0 0 0 0 0 0 0 0 0 0 0 0 0 0 0 0 0 127 0"/><feOffset/><feGaussianBlur stdDeviation="7.5"/><feColorMatrix values="0 0 0 0 1 0 0 0 0 0.341176 0 0 0 0 0.619608 0 0 0 1 0"/><feBlend in2="BackgroundImageFix" result="effect1_dropShadow"/><feBlend in="SourceGraphic" in2="effect1_dropShadow" result="shape"/></filter></defs></svg>