<svg width="60" height="60" fill="none" xmlns="http://www.w3.org/2000/svg"><g filter="url(#filter0_d)" fill-rule="evenodd" clip-rule="evenodd"><path d="M43 17H17v26h21a5 5 0 005-5V17zm-28-2v30h23a7 7 0 007-7V15H15z" fill="#fff"/><path d="M43 17H17v26h21a5 5 0 005-5V17zm-28-2v30h23a7 7 0 007-7V15H15z" fill="url(#paint0_linear)"/><path d="M24 25a2 2 0 100-4 2 2 0 000 4zm9.333 2H32v8a2 2 0 104 0v-5.333A2.667 2.667 0 0033.333 27zM24 27a4 4 0 100-8 4 4 0 000 8zm6-2v10a4 4 0 008 0v-5.333A4.667 4.667 0 0033.333 25H30z" fill="#fff"/><path d="M24 25a2 2 0 100-4 2 2 0 000 4zm9.333 2H32v8a2 2 0 104 0v-5.333A2.667 2.667 0 0033.333 27zM24 27a4 4 0 100-8 4 4 0 000 8zm6-2v10a4 4 0 008 0v-5.333A4.667 4.667 0 0033.333 25H30z" fill="url(#paint1_linear)"/></g><defs><linearGradient id="paint0_linear" x1="30" y1="15" x2="30" y2="45" gradientUnits="userSpaceOnUse"><stop stop-color="#FF9FC8"/><stop offset="1" stop-color="#FF579E"/></linearGradient><linearGradient id="paint1_linear" x1="30" y1="15" x2="30" y2="45" gradientUnits="userSpaceOnUse"><stop stop-color="#FF9FC8"/><stop offset="1" stop-color="#FF579E"/></linearGradient><filter id="filter0_d" x="0" y="0" width="60" height="60" filterUnits="userSpaceOnUse" color-interpolation-filters="sRGB"><feFlood flood-opacity="0" result="BackgroundImageFix"/><feColorMatrix in="SourceAlpha" values="0 0 0 0 0 0 0 0 0 0 0 0 0 0 0 0 0 0 127 0"/><feOffset/><feGaussianBlur stdDeviation="7.5"/><feColorMatrix values="0 0 0 0 1 0 0 0 0 0.341176 0 0 0 0 0.619608 0 0 0 1 0"/><feBlend in2="BackgroundImageFix" result="effect1_dropShadow"/><feBlend in="SourceGraphic" in2="effect1_dropShadow" result="shape"/></filter></defs></svg>